# xmcd
#
# Track frame offsets:
#	150
#	11549
#	18043
#	26326
#	37948
#	49388
#	58229
#	66907
#	75913
#	90842
#	100155
#	110352
#	120384
#	130494
#	140978
#	151108
#	163541
#	173526
#	184934
#	193261
#
# Disc length: 2710 seconds
#
# Revision: 1
# Processed by: cddbd v1.5.2PL0 Copyright (c) Steve Scherf et al.
# Submitted via: audiograbber 1.83.01
#
DISCID=f90a9414
DTITLE=Various Artist - 20 Bluegrass Originals Instrumentals
DYEAR=1900
DGENRE=Bluegrass
TTITLE0=Orange Blossom Special - Ralph Stanley and The Clinch Mountain Boys
TTITLE1=Banjo Whiz - Bill Emerson
TTITLE2=Bending The Strings - Allen Shelton
TTITLE3=Orange Blossom Special Breakdown - The Stonemans
TTITLE4=Lee Highway Ramble - Ken Clark and Chubby Anthony
TTITLE5=Kentucky Banjo - Larry Sparks
TTITLE6=Kentucky Shuck - Moore and Napier
TTITLE7=Dueling Banjos - Curtis McPeake
TTITLE8=Sunrise - Country Gentlemen
TTITLE9=Border Ride - Jim and Jesse
TTITLE10=Slippin' Banjo - Bill Duncan
TTITLE11=Buttahatchee - Leon Jackson and Johnny Bryant
TTITLE12=Green Mountain Hop - Reno and Smiley
TTITLE13=Home Sweet Home - Little Roy Lewis
TTITLE14=Sockeye - Reno and Smiley
TTITLE15=Train 45 - The Stanley Brothers
TTITLE16=Limehouse Blues - Reno and Smiley
TTITLE17=Big Country - Jimmy Martin
TTITLE18=Cotton Eyed Joe - Tommy Jackson
TTITLE19=Cedar Grove - Bill Clifton
EXTD=
EXTT0=
EXTT1=
EXTT2=
EXTT3=
EXTT4=
EXTT5=
EXTT6=
EXTT7=
EXTT8=
EXTT9=
EXTT10=
EXTT11=
EXTT12=
EXTT13=
EXTT14=
EXTT15=
EXTT16=
EXTT17=
EXTT18=
EXTT19=
PLAYORDER=
